<?xml version="1.0" encoding="utf-8"?>
<!-- Generator: Adobe Illustrator 22.0.1, SVG Export Plug-In . SVG Version: 6.00 Build 0)  -->
<svg version="1.1" id="Capa_1" xmlns="http://www.w3.org/2000/svg" xmlns:xlink="http://www.w3.org/1999/xlink" x="0px" y="0px"
	 viewBox="0 0 300 300" style="enable-background:new 0 0 300 300;" xml:space="preserve">
<style type="text/css">
	.st0{fill:#F9F9F9;}
</style>
<g>
	<path class="st0" d="M229.8,67.3c-21.7-21.7-50.6-33.7-81.4-33.7C85,33.6,33.4,85.2,33.4,148.7c0,30.7,12,59.6,33.7,81.4
		c21.7,21.7,50.6,33.7,81.4,33.7s59.6-12,81.4-33.7c21.7-21.7,33.7-50.6,33.7-81.4S251.5,89,229.8,67.3z M148.4,259.7
		c-29.7,0-57.6-11.6-78.5-32.5c-21-21-32.5-48.9-32.5-78.5s11.6-57.6,32.5-78.5c21-21,48.9-32.5,78.5-32.5S206,49.1,227,70.1
		c21,21,32.5,48.9,32.5,78.5C259.5,209.9,209.7,259.7,148.4,259.7z"/>
	<path class="st0" d="M148.4,42.2c-58.8,0-106.5,47.7-106.5,106.5c0,58.8,47.7,106.5,106.5,106.5c58.8,0,106.5-47.7,106.5-106.5
		C254.9,89.8,207.3,42.2,148.4,42.2z M132.9,48h8.4l7.6,20l7.6-20h8.4v28h-5.6V56.4L152,76h-6.1l-7.4-19.6V76h-5.6V48z M62.2,94.1
		l13.7-16.3c2.8-3.4,6.8-6.1,10.6-2.9c1.2,1,1.7,1.3,3.1,3.9c0.3,0.9,0.6,2.6,0,4.2c3.3-2,6.8-1.4,9,0.8c3.5,3.4,3,7.3-0.3,11.2
		l-14.4,17.2L62.2,94.1z M148.4,216.7c-37.6,0-68-30.5-68-68s30.5-68,68-68c37.6,0,68,30.5,68,68S186,216.7,148.4,216.7z
		 M211.8,112.7l-5.1-6.3l10.1-14.8l-0.1-0.1l-16.6,6.8l-5.1-6.3l17.6-22.6l4.3,5.4l-11,14.4l16.8-7.2l4.7,5.7l-10.6,15l16.4-7.8
		l4.3,5.4L211.8,112.7z"/>
	<path class="st0" d="M84.8,148.7h63.7V85C113.3,85,84.8,113.5,84.8,148.7z M148.4,148.7v63.7c35.2,0,63.7-28.5,63.7-63.7H148.4
		L148.4,148.7z"/>
	<path class="st0" d="M78.8,81.8c1-1.1,3.1-1.1,4.5,0.1c1.5,1.3,1.5,3.1,0.5,4.3l-8.1,9.7l-5.1-4.3L78.8,81.8z M93.3,93.2l-8.6,10.2
		l-5.4-4.5L88,88.7c1-1.2,3.1-1.5,4.6-0.3C94.3,89.8,94.4,91.9,93.3,93.2L93.3,93.2z"/>
</g>
</svg>
