<?xml version="1.0" encoding="utf-8"?>
<!-- Generator: Adobe Illustrator 22.0.1, SVG Export Plug-In . SVG Version: 6.00 Build 0)  -->
<svg version="1.1" id="Capa_1" xmlns="http://www.w3.org/2000/svg" xmlns:xlink="http://www.w3.org/1999/xlink" x="0px" y="0px"
	 viewBox="0 0 300 300" style="enable-background:new 0 0 300 300;" xml:space="preserve">
<style type="text/css">
	.st0{fill:url(#SVGID_1_);}
	.st1{fill:#444B4C;}
	.st2{fill:url(#SVGID_2_);}
	.st3{fill:url(#SVGID_3_);}
	.st4{fill:#333333;}
	.st5{fill:url(#SVGID_4_);}
	.st6{fill:url(#SVGID_5_);}
	.st7{fill:url(#SVGID_6_);}
	.st8{fill:url(#SVGID_7_);}
	.st9{fill:url(#SVGID_8_);}
	.st10{fill:url(#SVGID_9_);}
	.st11{fill:url(#SVGID_10_);}
	.st12{fill:url(#SVGID_11_);}
	.st13{fill:url(#SVGID_12_);}
	.st14{fill:#BDD5E5;}
	.st15{fill:url(#SVGID_13_);}
	.st16{fill:#005D6C;}
	.st17{fill:url(#SVGID_14_);}
	.st18{fill:url(#SVGID_15_);}
	.st19{fill:url(#SVGID_16_);}
	.st20{fill:url(#SVGID_17_);}
</style>
<g>
	<g>
		
			<linearGradient id="SVGID_1_" gradientUnits="userSpaceOnUse" x1="19.2215" y1="277.5853" x2="260.7116" y2="44.2262" gradientTransform="matrix(1 0 0 -1 0 302)">
			<stop  offset="0" style="stop-color:#DEEBF2"/>
			<stop  offset="0.1033" style="stop-color:#D5E1E8"/>
			<stop  offset="0.2811" style="stop-color:#BCC6CC"/>
			<stop  offset="0.512" style="stop-color:#939B9F"/>
			<stop  offset="0.7839" style="stop-color:#5C5F61"/>
			<stop  offset="1" style="stop-color:#2B2B2B"/>
		</linearGradient>
		<path class="st0" d="M149.7,36.7c-62.9,0-113.8,50.9-113.8,113.8s50.9,113.8,113.8,113.8s113.8-50.9,113.8-113.8
			S212.6,36.7,149.7,36.7z M149.7,258.6c-59.7,0-108.1-48.4-108.1-108.1S90,42.4,149.7,42.4s108.1,48.4,108.1,108.1
			S209.4,258.6,149.7,258.6z"/>
		<path class="st1" d="M258.7,150.5c0,60.2-48.8,109-109,109s-109-48.8-109-109s48.8-109,109-109C209.9,41.5,258.7,90.3,258.7,150.5
			z"/>
		
			<radialGradient id="SVGID_2_" cx="34.4497" cy="257.8048" r="161.7231" gradientTransform="matrix(1 0 0 -1 0 302)" gradientUnits="userSpaceOnUse">
			<stop  offset="0" style="stop-color:#FFFFFF"/>
			<stop  offset="0.3064" style="stop-color:#A8A8A8"/>
			<stop  offset="0.6461" style="stop-color:#4F4F4F"/>
			<stop  offset="0.8853" style="stop-color:#161616"/>
			<stop  offset="1" style="stop-color:#000000"/>
		</radialGradient>
		<path class="st2" d="M257.8,150.5c0,59.7-48.4,108.1-108.1,108.1S41.6,210.2,41.6,150.5S90,42.4,149.7,42.4
			S257.8,90.8,257.8,150.5z"/>
		
			<linearGradient id="SVGID_3_" gradientUnits="userSpaceOnUse" x1="-8061.4624" y1="8308.7988" x2="-7907.6582" y2="8160.1729" gradientTransform="matrix(-1 0 0 1 -7828.666 -8078)">
			<stop  offset="0" style="stop-color:#DEEBF2"/>
			<stop  offset="8.895579e-02" style="stop-color:#D5E1E8"/>
			<stop  offset="0.2421" style="stop-color:#BBC6CC"/>
			<stop  offset="0.4411" style="stop-color:#929A9F"/>
			<stop  offset="0.6781" style="stop-color:#585D60"/>
			<stop  offset="0.9446" style="stop-color:#101111"/>
			<stop  offset="1" style="stop-color:#000000"/>
		</linearGradient>
		<path class="st3" d="M222.2,150.5c0,40.1-32.5,72.5-72.5,72.5s-72.5-32.5-72.5-72.5S109.6,78,149.7,78S222.2,110.4,222.2,150.5z"
			/>
		<g>
			<polygon points="152.6,76 160.1,56.1 160.1,76 165.8,76 165.8,47.5 157.3,47.5 149.5,67.9 149.5,67.9 141.7,47.5 133.1,47.5 
				133.1,76 138.8,76 138.8,56.1 146.3,76 			"/>
		</g>
		<g>
			<polygon points="231.1,88.9 221.4,103.1 236.7,95.6 240.8,100.6 216.7,112.7 211.8,106.8 221.1,92.7 221.1,92.6 205.6,99.3 
				200.6,93.4 216.9,71.8 221.1,76.8 210.9,90.6 226.6,83.5 			"/>
		</g>
		<path class="st4" d="M99.1,83.4c-2.3-2.3-5.9-2.9-9.2-0.9c0.6-1.6,0.4-3.4,0.1-4.3c-1.4-2.6-2-3-3.1-3.9
			c-3.8-3.2-7.9-0.4-10.8,3.1L62.1,93.9L84,112.3l14.7-17.5C102.1,90.8,102.6,86.8,99.1,83.4z M70.7,91.4l8.4-10
			c0.9-1.2,3.1-1.1,4.5,0.1c1.6,1.3,1.6,3.1,0.5,4.4l-8.2,9.9L70.7,91.4z M93.8,93.1l-8.8,10.4l-5.5-4.6l8.8-10.5
			c1-1.2,3.2-1.6,4.7-0.3C94.8,89.6,95,91.7,93.8,93.1z"/>
		<g>
			<g>
				
					<radialGradient id="SVGID_4_" cx="5.4066" cy="274.2747" r="388.5908" gradientTransform="matrix(1 0 0 -1 0 302)" gradientUnits="userSpaceOnUse">
					<stop  offset="0" style="stop-color:#FFFFFF"/>
					<stop  offset="0.3102" style="stop-color:#FDFDFD"/>
					<stop  offset="0.4505" style="stop-color:#F6F6F6"/>
					<stop  offset="0.5567" style="stop-color:#E9E9E9"/>
					<stop  offset="0.6456" style="stop-color:#D7D7D7"/>
					<stop  offset="0.7238" style="stop-color:#BFBFBF"/>
					<stop  offset="0.7944" style="stop-color:#A2A2A2"/>
					<stop  offset="0.8593" style="stop-color:#808080"/>
					<stop  offset="0.9199" style="stop-color:#575757"/>
					<stop  offset="0.9746" style="stop-color:#2B2B2B"/>
					<stop  offset="1" style="stop-color:#141414"/>
				</radialGradient>
				<polygon class="st5" points="152.7,74.9 160.2,55 160.2,74.9 165.9,74.9 165.9,46.4 157.3,46.4 149.5,66.8 149.5,66.8 
					141.7,46.4 133.2,46.4 133.2,74.9 138.9,74.9 138.9,55 146.4,74.9 				"/>
			</g>
			<g>
				
					<radialGradient id="SVGID_5_" cx="5.3862" cy="274.2739" r="388.6307" gradientTransform="matrix(1 0 0 -1 0 302)" gradientUnits="userSpaceOnUse">
					<stop  offset="0" style="stop-color:#FFFFFF"/>
					<stop  offset="0.3102" style="stop-color:#FDFDFD"/>
					<stop  offset="0.4505" style="stop-color:#F6F6F6"/>
					<stop  offset="0.5567" style="stop-color:#E9E9E9"/>
					<stop  offset="0.6456" style="stop-color:#D7D7D7"/>
					<stop  offset="0.7238" style="stop-color:#BFBFBF"/>
					<stop  offset="0.7944" style="stop-color:#A2A2A2"/>
					<stop  offset="0.8593" style="stop-color:#808080"/>
					<stop  offset="0.9199" style="stop-color:#575757"/>
					<stop  offset="0.9746" style="stop-color:#2B2B2B"/>
					<stop  offset="1" style="stop-color:#141414"/>
				</radialGradient>
				<polygon class="st6" points="231.1,87 221.4,101.2 236.7,93.6 240.9,98.6 216.7,110.8 211.9,104.8 221.2,90.7 221.2,90.6 
					205.6,97.3 200.6,91.4 217,69.9 221.1,74.8 210.9,88.6 226.7,81.6 				"/>
			</g>
			
				<radialGradient id="SVGID_6_" cx="5.3809" cy="274.2769" r="388.6441" gradientTransform="matrix(1 0 0 -1 0 302)" gradientUnits="userSpaceOnUse">
				<stop  offset="0" style="stop-color:#FFFFFF"/>
				<stop  offset="0.3102" style="stop-color:#FDFDFD"/>
				<stop  offset="0.4505" style="stop-color:#F6F6F6"/>
				<stop  offset="0.5567" style="stop-color:#E9E9E9"/>
				<stop  offset="0.6456" style="stop-color:#D7D7D7"/>
				<stop  offset="0.7238" style="stop-color:#BFBFBF"/>
				<stop  offset="0.7944" style="stop-color:#A2A2A2"/>
				<stop  offset="0.8593" style="stop-color:#808080"/>
				<stop  offset="0.9199" style="stop-color:#575757"/>
				<stop  offset="0.9746" style="stop-color:#2B2B2B"/>
				<stop  offset="1" style="stop-color:#141414"/>
			</radialGradient>
			<path class="st7" d="M98.1,82.8c-2.3-2.3-5.9-2.9-9.2-0.9c0.6-1.6,0.4-3.4,0-4.3c-1.4-2.7-2-3-3.1-3.9c-3.8-3.2-7.9-0.5-10.7,3
				l-14,16.7L83,111.8l14.7-17.5C101,90.3,101.6,86.3,98.1,82.8z M69.7,90.9l8.4-10c0.9-1.2,3.1-1.1,4.5,0.1
				c1.6,1.3,1.6,3.1,0.5,4.4l-8.3,9.9L69.7,90.9z M92.8,92.5l-8.8,10.4l-5.5-4.6l8.8-10.5c1-1.2,3.2-1.6,4.7-0.2
				C93.8,89,94,91.1,92.8,92.5z"/>
		</g>
	</g>
	<g>
		
			<radialGradient id="SVGID_7_" cx="75.002" cy="220.3998" r="104.8162" gradientTransform="matrix(1 0 0 -1 0 302)" gradientUnits="userSpaceOnUse">
			<stop  offset="0" style="stop-color:#E6E6E6"/>
			<stop  offset="0.1045" style="stop-color:#D6D6D6"/>
			<stop  offset="0.3074" style="stop-color:#ADADAD"/>
			<stop  offset="0.5884" style="stop-color:#6C6C6C"/>
			<stop  offset="0.9335" style="stop-color:#121212"/>
			<stop  offset="1" style="stop-color:#000000"/>
		</radialGradient>
		<path class="st8" d="M79.6,150.5c0-38.7,31.4-70.1,70.1-70.1s70.1,31.4,70.1,70.1s-31.4,70.1-70.1,70.1S79.6,189.2,79.6,150.5z"/>
		
			<radialGradient id="SVGID_8_" cx="103.6703" cy="206.3023" r="152.4333" gradientTransform="matrix(1 0 0 -1 0 302)" gradientUnits="userSpaceOnUse">
			<stop  offset="0" style="stop-color:#FFFFFF"/>
			<stop  offset="0.3435" style="stop-color:#FDFDFD"/>
			<stop  offset="0.4814" style="stop-color:#F6F6F6"/>
			<stop  offset="0.5824" style="stop-color:#EAEAEA"/>
			<stop  offset="0.6654" style="stop-color:#D8D8D8"/>
			<stop  offset="0.7373" style="stop-color:#C2C2C2"/>
			<stop  offset="0.8016" style="stop-color:#A6A6A6"/>
			<stop  offset="0.8602" style="stop-color:#848484"/>
			<stop  offset="0.9126" style="stop-color:#5F5F5F"/>
			<stop  offset="0.9494" style="stop-color:#404040"/>
			<stop  offset="0.9566" style="stop-color:#404040"/>
			<stop  offset="1" style="stop-color:#404040"/>
			<stop  offset="1" style="stop-color:#000000"/>
		</radialGradient>
		<path class="st9" d="M81.6,150.5c0-37.6,30.5-68.1,68.1-68.1s68.1,30.5,68.1,68.1c0,37.6-30.5,68.1-68.1,68.1
			S81.6,188.1,81.6,150.5z"/>
		<g>
			
				<radialGradient id="SVGID_9_" cx="58.9141" cy="264.0847" r="269.9603" gradientTransform="matrix(1 0 0 -1 0 302)" gradientUnits="userSpaceOnUse">
				<stop  offset="0.1685" style="stop-color:#FFFFFF"/>
				<stop  offset="0.1884" style="stop-color:#E2F5FB"/>
				<stop  offset="0.2282" style="stop-color:#AEE2F4"/>
				<stop  offset="0.2697" style="stop-color:#7FD1EE"/>
				<stop  offset="0.312" style="stop-color:#58C3E9"/>
				<stop  offset="0.3554" style="stop-color:#38B7E5"/>
				<stop  offset="0.4002" style="stop-color:#1FAEE2"/>
				<stop  offset="0.447" style="stop-color:#0EA8E0"/>
				<stop  offset="0.4971" style="stop-color:#03A4DE"/>
				<stop  offset="0.5562" style="stop-color:#00A3DE"/>
				<stop  offset="0.6034" style="stop-color:#01A0DA"/>
				<stop  offset="0.6503" style="stop-color:#0498CE"/>
				<stop  offset="0.697" style="stop-color:#088BBA"/>
				<stop  offset="0.7437" style="stop-color:#0E789E"/>
				<stop  offset="0.7903" style="stop-color:#17607A"/>
				<stop  offset="0.8363" style="stop-color:#20424F"/>
				<stop  offset="0.8708" style="stop-color:#292929"/>
			</radialGradient>
			<path class="st10" d="M81.6,150.5h68.1V82.4C112.1,82.4,81.6,112.9,81.6,150.5z"/>
			
				<radialGradient id="SVGID_10_" cx="58.9134" cy="264.0876" r="269.9567" gradientTransform="matrix(1 0 0 -1 0 302)" gradientUnits="userSpaceOnUse">
				<stop  offset="0.1685" style="stop-color:#FFFFFF"/>
				<stop  offset="0.1884" style="stop-color:#E2F5FB"/>
				<stop  offset="0.2282" style="stop-color:#AEE2F4"/>
				<stop  offset="0.2697" style="stop-color:#7FD1EE"/>
				<stop  offset="0.312" style="stop-color:#58C3E9"/>
				<stop  offset="0.3554" style="stop-color:#38B7E5"/>
				<stop  offset="0.4002" style="stop-color:#1FAEE2"/>
				<stop  offset="0.447" style="stop-color:#0EA8E0"/>
				<stop  offset="0.4971" style="stop-color:#03A4DE"/>
				<stop  offset="0.5562" style="stop-color:#00A3DE"/>
				<stop  offset="0.6034" style="stop-color:#01A0DA"/>
				<stop  offset="0.6503" style="stop-color:#0498CE"/>
				<stop  offset="0.697" style="stop-color:#088BBA"/>
				<stop  offset="0.7437" style="stop-color:#0E789E"/>
				<stop  offset="0.7903" style="stop-color:#17607A"/>
				<stop  offset="0.8363" style="stop-color:#20424F"/>
				<stop  offset="0.8708" style="stop-color:#292929"/>
			</radialGradient>
			<path class="st11" d="M149.7,150.5v68.1c37.6,0,68.1-30.5,68.1-68.1H149.7z"/>
		</g>
		
			<radialGradient id="SVGID_11_" cx="76.4337" cy="219.0802" r="102.8075" gradientTransform="matrix(1 0 0 -1 0 302)" gradientUnits="userSpaceOnUse">
			<stop  offset="0" style="stop-color:#E6E6E6"/>
			<stop  offset="0.1045" style="stop-color:#D6D6D6"/>
			<stop  offset="0.3074" style="stop-color:#ADADAD"/>
			<stop  offset="0.5884" style="stop-color:#6C6C6C"/>
			<stop  offset="0.9335" style="stop-color:#121212"/>
			<stop  offset="1" style="stop-color:#000000"/>
		</radialGradient>
		<polygon class="st12" points="218.5,149.2 150.9,149.2 150.9,81.7 148.5,81.7 148.5,149.2 80.9,149.2 80.9,151.7 148.5,151.7 
			148.5,219.3 150.9,219.3 150.9,151.7 218.5,151.7 		"/>
		
			<linearGradient id="SVGID_12_" gradientUnits="userSpaceOnUse" x1="136.1788" y1="244.7083" x2="236.436" y2="147.8267" gradientTransform="matrix(1 0 0 -1 0 302)">
			<stop  offset="0" style="stop-color:#EEF0F3"/>
			<stop  offset="0.1126" style="stop-color:#E9EBED"/>
			<stop  offset="0.2564" style="stop-color:#D9DBDE"/>
			<stop  offset="0.4173" style="stop-color:#BFC1C3"/>
			<stop  offset="0.5906" style="stop-color:#9C9D9F"/>
			<stop  offset="0.7738" style="stop-color:#6E6F70"/>
			<stop  offset="0.9626" style="stop-color:#373737"/>
			<stop  offset="1" style="stop-color:#2B2B2B"/>
		</linearGradient>
		<path class="st13" d="M150.9,83.7c36,0.6,65,29.7,65.6,65.6h1.2c-0.6-36.6-30.2-66.2-66.8-66.8L150.9,83.7L150.9,83.7z"/>
		<path class="st14" d="M82.7,149.2c0.6-36,29.7-65.1,65.7-65.7v-1.2c-36.7,0.6-66.3,30.3-66.9,66.9H82.7z"/>
		
			<linearGradient id="SVGID_13_" gradientUnits="userSpaceOnUse" x1="54.8769" y1="162.9881" x2="155.1351" y2="66.1056" gradientTransform="matrix(1 0 0 -1 0 302)">
			<stop  offset="0" style="stop-color:#EEF0F3"/>
			<stop  offset="0.1126" style="stop-color:#E9EBED"/>
			<stop  offset="0.2564" style="stop-color:#D9DBDE"/>
			<stop  offset="0.4173" style="stop-color:#BFC1C3"/>
			<stop  offset="0.5906" style="stop-color:#9C9D9F"/>
			<stop  offset="0.7738" style="stop-color:#6E6F70"/>
			<stop  offset="0.9626" style="stop-color:#373737"/>
			<stop  offset="1" style="stop-color:#2B2B2B"/>
		</linearGradient>
		<path class="st15" d="M148.5,217.3c-36-0.6-65-29.7-65.6-65.6h-1.2c0.6,36.6,30.2,66.2,66.8,66.8V217.3z"/>
		<path class="st16" d="M216.5,151.7c-0.6,36-29.7,65-65.6,65.6v1.2c36.6-0.6,66.2-30.2,66.8-66.8H216.5z"/>
		
			<linearGradient id="SVGID_14_" gradientUnits="userSpaceOnUse" x1="103.364" y1="197.5198" x2="155.3524" y2="147.2818" gradientTransform="matrix(1 0 0 -1 0 302)">
			<stop  offset="0" style="stop-color:#BDD5E5"/>
			<stop  offset="0.1445" style="stop-color:#B5CEDF"/>
			<stop  offset="0.3699" style="stop-color:#9FBCCD"/>
			<stop  offset="0.6482" style="stop-color:#7B9EB1"/>
			<stop  offset="0.9658" style="stop-color:#49758B"/>
			<stop  offset="1" style="stop-color:#437086"/>
		</linearGradient>
		<polygon class="st17" points="147.2,82.4 147.2,148 81.6,148 81.6,149.2 147.2,149.2 148.5,149.2 148.5,148 148.5,82.4 		"/>
		
			<linearGradient id="SVGID_15_" gradientUnits="userSpaceOnUse" x1="77.3024" y1="185.1852" x2="176.5535" y2="89.276" gradientTransform="matrix(1 0 0 -1 0 302)">
			<stop  offset="0" style="stop-color:#EEF0F3"/>
			<stop  offset="0.1015" style="stop-color:#E5E7EA"/>
			<stop  offset="0.268" style="stop-color:#CDCFD1"/>
			<stop  offset="0.4788" style="stop-color:#A6A7A9"/>
			<stop  offset="0.7256" style="stop-color:#707071"/>
			<stop  offset="1" style="stop-color:#2B2B2B"/>
		</linearGradient>
		<polygon class="st18" points="147.1,217.9 147.1,153.1 82.1,153.1 82.1,151.8 147.1,151.8 148.4,151.8 148.4,153.1 148.4,217.9 		
			"/>
		
			<linearGradient id="SVGID_16_" gradientUnits="userSpaceOnUse" x1="150.4739" y1="149.5945" x2="185.2858" y2="115.9547" gradientTransform="matrix(1 0 0 -1 0 302)">
			<stop  offset="0" style="stop-color:#D6DDE8"/>
			<stop  offset="0.1215" style="stop-color:#D1DAE5"/>
			<stop  offset="0.26" style="stop-color:#C4D1DE"/>
			<stop  offset="0.4067" style="stop-color:#ADC2D1"/>
			<stop  offset="0.5594" style="stop-color:#8DAEBF"/>
			<stop  offset="0.7165" style="stop-color:#6493A8"/>
			<stop  offset="0.875" style="stop-color:#32738C"/>
			<stop  offset="0.9719" style="stop-color:#105D79"/>
		</linearGradient>
		<polygon class="st19" points="152.3,217.9 152.3,153.1 217.1,153.1 217.1,151.8 152.3,151.8 151,151.8 151,153.1 151,217.9 		"/>
		
			<linearGradient id="SVGID_17_" gradientUnits="userSpaceOnUse" x1="114.8587" y1="221.5994" x2="214.0007" y2="125.7956" gradientTransform="matrix(1 0 0 -1 0 302)">
			<stop  offset="0" style="stop-color:#EEF0F3"/>
			<stop  offset="0.1126" style="stop-color:#E9EBED"/>
			<stop  offset="0.2564" style="stop-color:#D9DBDE"/>
			<stop  offset="0.4173" style="stop-color:#BFC1C3"/>
			<stop  offset="0.5906" style="stop-color:#9C9D9F"/>
			<stop  offset="0.7738" style="stop-color:#6E6F70"/>
			<stop  offset="0.9626" style="stop-color:#373737"/>
			<stop  offset="1" style="stop-color:#2B2B2B"/>
		</linearGradient>
		<polygon class="st20" points="152.3,82.9 152.3,147.8 217.1,147.8 217.1,149 152.3,149 151,149 151,147.8 151,82.9 		"/>
	</g>
</g>
</svg>
