<?xml version="1.0" encoding="utf-8"?>
<!-- Generator: Adobe Illustrator 22.0.1, SVG Export Plug-In . SVG Version: 6.00 Build 0)  -->
<svg version="1.1" id="Capa_1" xmlns="http://www.w3.org/2000/svg" xmlns:xlink="http://www.w3.org/1999/xlink" x="0px" y="0px"
	 viewBox="0 0 300 141.7" style="enable-background:new 0 0 300 141.7;" xml:space="preserve">
<style type="text/css">
	.st0{fill-rule:evenodd;clip-rule:evenodd;fill:#004F9E;}
</style>
<polygon class="st0" points="2.9,104.3 14.3,104.3 14.3,116.9 34.7,116.9 34.7,104.3 46,104.3 46,139.6 34.7,139.6 34.7,124.7 
	14.1,124.7 14.1,139.4 2.9,139.4 2.9,104.3 "/>
<polygon class="st0" points="47.2,104.3 58.4,104.3 70.1,117.9 81.6,104.3 92.6,104.3 75.6,125.9 75.6,139.6 64.4,139.6 64.4,124.9 
	47.2,104.3 "/>
<path class="st0" d="M94,104.3h11.3v27.3h18.1c2.9,0,4.7-2.8,4.7-5.9v-21.4h11.3v28.1c0,4.4-5,7-7.8,7H94V104.3L94,104.3z"/>
<path class="st0" d="M141.9,104.3h37.5c4.4,0,8,2.7,8,8.2v27l-11.3,0.1v-21.4c0-3-1-4.8-4.9-4.8h-17v26.3h-12.4V104.3L141.9,104.3z"
	/>
<path class="st0" d="M190.8,104.3h32.8c6.6,0,11.6,5.3,11.6,9.3v16.2c-0.1,2.9-4.1,9.7-9.1,9.7h-35.4V104.3L190.8,104.3z
	 M202.3,131.7h17.3c2.5,0,4.4-1.9,4.4-4.1v-10.3c0-2.5-2.1-4-4.7-4h-17.1V131.7L202.3,131.7z"/>
<path class="st0" d="M249.2,104.2h35.2v35.4h-12.6v-9.1h-21.6v9.1h-12.7v-23C237.2,108.9,244,104.2,249.2,104.2L249.2,104.2z
	 M250,116.8v5.7h21.7v-9h-18.3C251.3,113.5,250,114.8,250,116.8L250,116.8z"/>
<polygon class="st0" points="286.6,104.3 297.9,104.3 297.9,140.7 286.6,140.7 286.6,104.3 "/>
<path class="st0" d="M151.1,2.3c-46.8,0-84.7,18.7-84.7,41.8c0,23.1,37.9,41.8,84.7,41.8c46.8,0,84.7-18.7,84.7-41.8
	C235.8,21,197.8,2.3,151.1,2.3L151.1,2.3z M143,11.6c9.7-3.4,38.4,0,49.5,5.4c3.6,3.4-15.9,14.4-39.1,19.2
	C120.3,42.9,136,17.3,143,11.6L143,11.6z M86,61.2c-7.3-5.2-21.6-20.1,2.1-35.6c12.5-7.3,19.5-8.9,28.1-10.7
	c4.2-0.9,7.1,0.1,3.4,3.3c-7.9,8.2-24.3,35.3-25.7,41.2C92.7,63.4,90.4,64.4,86,61.2L86,61.2z M154.2,78.4
	c-14,1.5-45.1-3.1-45.7-7.1c0.6-9.7,49.4-25.7,58.2-16.8C170.4,61.5,163.3,78,154.2,78.4L154.2,78.4z M225.3,50.3
	c-3.6,8.2-15.6,17.4-40.9,23.7c-3.9,0.9-5.2-1.5-2.7-3.7c4.2-2.5,24.3-36.2,26.8-42.9c1.5-3.4,4.3-2.1,6.1-0.7
	C222.6,31.8,228.7,40.3,225.3,50.3L225.3,50.3z"/>
</svg>
