<?xml version="1.0" encoding="utf-8"?>
<!-- Generator: Adobe Illustrator 22.0.0, SVG Export Plug-In . SVG Version: 6.00 Build 0)  -->
<svg version="1.1" id="Layer_1" xmlns="http://www.w3.org/2000/svg" xmlns:xlink="http://www.w3.org/1999/xlink" x="0px" y="0px"
	 viewBox="0 0 480.1 99.5" style="enable-background:new 0 0 480.1 99.5;" xml:space="preserve">
<style type="text/css">
	.st0{fill:#FCFCFC;}
</style>
<g>
	<path class="st0" d="M252.9,99.5c-5.8,0-11.1-1.2-15.8-3.7c-4.8-2.5-8.9-5.9-12.3-10.3c-3.3-4.5-5.9-9.8-7.8-15.8
		c-2-6.1-3-12.7-3-19.8c0-7.7,0.8-14.6,2.5-20.7c1.8-6.2,4.3-11.5,7.5-15.8c3.3-4.3,7.4-7.6,12.2-9.8c4.9-2.4,10.4-3.6,16.7-3.6
		c7.3,0,13.7,1.5,19.2,4.4c5.4,2.9,10.2,8,14.3,15.1L270,30.7c-1.8-3.6-4.3-6.6-7.7-8.8c-3.3-2.3-6.5-3.4-9.5-3.4
		c-14,0-21,10.5-21,31.4c0,4.6,0.5,8.9,1.5,12.7s2.4,7.2,4.2,10.2c1.9,2.8,4.1,5,6.7,6.6c2.6,1.6,5.4,2.4,8.7,2.4
		c4.2,0,8-1.4,11.3-4.1c3.3-2.8,5.3-7,6-12.4h-17.7V48h37.7v7.8c0,5.6-0.9,11.1-2.8,16.5c-1.9,5.2-4.5,9.8-7.8,13.9
		s-7.3,7.4-11.8,9.8C263.1,98.3,258.2,99.5,252.9,99.5 M106.3,37.9c0-12.8-5.6-19.2-16.7-19.2c-12,0-18,6.5-18,19.4v60H52.9V38.3
		c0-7.1-1.6-12.1-4.8-14.8c-3.2-2.9-7.1-4.3-11.6-4.3c-5,0-9.3,1.5-12.8,4.6c-3.3,3-5,7.8-5,14.1v60.2H0V1.7h18.7v11.1
		c2.4-4.4,5.7-7.6,9.8-9.6C32.8,1.1,37.8,0,43.6,0c5,0,9.4,1,13,3c3.8,2,6.5,4.3,8.2,7.1c2.1-3,5.4-5.5,9.8-7.3
		C79,0.9,84.7,0,91.5,0c10.5,0,18.7,3.1,24.6,9.4C122,15.6,125,24,125,34.5v63.7h-18.7V37.9z M186,57.7c0-1.2-0.5-2.4-1.6-3.4
		c-0.9-1.2-2.1-2.2-3.7-3c-1.5-0.9-3.1-1.6-4.8-2.1s-3.3-0.7-4.8-0.7c-12.9,0-19.4,5.4-19.4,16.2c0,4.6,1.7,8.3,5,11.2
		c3.5,2.7,7.6,4.1,12.3,4.1c1.5,0,3.2-0.2,5-0.7c2-0.5,3.8-1.1,5.5-1.8c1.8-0.9,3.3-2,4.6-3.2c1.2-1.2,1.8-2.7,1.8-4.3L186,57.7
		L186,57.7z M186.3,89.9c-1.5,2.3-4.3,4.4-8.2,6.4c-4,2-8.8,3-14.4,3c-4.3,0-8.3-0.8-12.1-2.3c-3.7-1.5-6.9-3.7-9.8-6.6
		c-2.7-3-4.9-6.6-6.6-10.7c-1.5-4.3-2.3-9.1-2.3-14.4c0-11,3.1-19.3,9.4-25.1c6.4-5.8,14.7-8.7,24.9-8.7c4.7,0,8.6,0.7,11.6,2.1
		c3.2,1.2,5.6,2.8,7.3,4.8c0-4.1-0.5-7.4-1.4-9.8c-0.8-2.6-1.9-4.6-3.4-5.9c-1.5-1.4-3.5-2.3-5.9-2.7c-2.3-0.6-4.9-0.9-7.8-0.9
		c-3.5,0-6.5,0.6-9.1,1.8c-2.4,1.1-4.6,2.4-6.6,4.1l-8.4-14.4c3-3.3,6.8-5.9,11.4-7.8c4.6-1.8,9.7-2.7,15.3-2.7
		c10.5,0,18.9,3.2,25.3,9.6c6.4,6.2,9.6,14.8,9.6,25.8v62.7h-18.7v-8.3H186.3z M351.2,37.9c0-6.4-1.4-11.2-4.3-14.4
		c-2.9-3.3-6.9-5-12.1-5s-9.5,1.7-13,5c-3.3,3.2-5,8-5,14.4v60.2H298V1.7h18.7V13c2.3-4.4,5.5-7.7,9.6-9.8c4.3-2.1,9.2-3.2,14.8-3.2
		c8.7,0,15.6,3.1,20.8,9.4c5.3,6.1,8,14.4,8,24.9v63.9h-18.7L351.2,37.9L351.2,37.9z M429.8,57.7c0-1.2-0.5-2.4-1.6-3.4
		c-0.9-1.2-2.1-2.2-3.7-3c-1.5-0.9-3.1-1.6-4.8-2.1c-1.7-0.5-3.3-0.7-4.8-0.7c-12.9,0-19.4,5.4-19.4,16.2c0,4.6,1.7,8.3,5,11.2
		c3.5,2.7,7.6,4.1,12.3,4.1c1.5,0,3.2-0.2,5-0.7c2-0.5,3.8-1.1,5.5-1.8c1.8-0.9,3.4-2,4.6-3.2s1.8-2.7,1.8-4.3V57.7H429.8z
		 M430,89.9c-1.5,2.3-4.3,4.4-8.2,6.4c-4,2-8.8,3-14.4,3c-4.3,0-8.3-0.8-12.1-2.3c-3.7-1.5-6.9-3.7-9.8-6.6c-2.7-3-4.9-6.6-6.6-10.7
		c-1.5-4.3-2.3-9.1-2.3-14.4c0-11,3.1-19.3,9.4-25.1c6.4-5.8,14.7-8.7,24.9-8.7c4.7,0,8.6,0.7,11.6,2.1c3.2,1.2,5.6,2.8,7.3,4.8
		c0-4.1-0.5-7.4-1.4-9.8c-0.8-2.6-1.9-4.6-3.4-5.9c-1.5-1.4-3.5-2.3-5.9-2.7c-2.3-0.6-4.9-0.9-7.8-0.9c-3.5,0-6.5,0.6-9.1,1.8
		c-2.4,1.1-4.6,2.4-6.6,4.1l-8.4-14.4c3-3.3,6.9-5.9,11.4-7.8c4.6-1.8,9.7-2.7,15.3-2.7c10.5,0,18.9,3.2,25.3,9.6
		c6.4,6.2,9.6,14.8,9.6,25.8v62.7H430V89.9z"/>
	<path class="st0" d="M469.6,78.3c-1.3,0-2.4,0.2-3.5,0.7c-1,0.5-1.9,1.1-2.6,1.8c-0.7,0.7-1.3,1.6-1.6,2.5
		c-0.4,0.9-0.6,1.9-0.6,2.8c0,1,0.2,1.9,0.6,2.9c0.4,0.9,0.9,1.8,1.6,2.5s1.6,1.3,2.6,1.8s2.2,0.7,3.5,0.7c1.2,0,2.3-0.2,3.4-0.6
		s2.1-1,2.8-1.7c0.8-0.7,1.4-1.6,1.9-2.5c0.5-1,0.7-2,0.7-3.1c0-0.9-0.2-1.9-0.7-2.8c-0.4-0.9-1-1.8-1.8-2.5s-1.7-1.3-2.8-1.8
		C472.1,78.5,470.9,78.3,469.6,78.3 M469.6,87.7h-1.1v3.9h-2.1V81h3.8c1,0,1.8,0.3,2.3,0.9c0.6,0.6,0.9,1.4,0.9,2.5
		c0,0.7-0.1,1.3-0.4,1.7c-0.3,0.4-0.7,0.8-1.3,1.2l1.9,4.2h-2.2L469.6,87.7z M468.5,83.1v2.4h1.7c0.7,0,1.1-0.4,1.1-1.1
		c0-0.8-0.4-1.2-1.1-1.2h-1.7V83.1z M469.7,95.8c-1.5,0-2.9-0.3-4.1-0.8c-1.3-0.5-2.3-1.3-3.3-2.2c-0.9-0.9-1.6-1.9-2.2-3.1
		c-0.5-1.2-0.7-2.4-0.7-3.7c0-1.3,0.2-2.6,0.7-3.7c0.5-1.2,1.2-2.2,2.2-3.1c0.9-0.9,2-1.6,3.3-2.1s2.6-0.8,4.1-0.8s2.9,0.3,4.2,0.8
		c1.3,0.5,2.4,1.2,3.3,2.1s1.7,1.9,2.2,3.1s0.8,2.4,0.8,3.8c0,1.3-0.3,2.5-0.8,3.7s-1.3,2.2-2.2,3.1c-0.9,0.9-2,1.6-3.3,2.2
		C472.5,95.5,471.2,95.8,469.7,95.8"/>
</g>
</svg>
