<?xml version="1.0" encoding="utf-8"?>
<!-- Generator: Adobe Illustrator 22.0.1, SVG Export Plug-In . SVG Version: 6.00 Build 0)  -->
<svg version="1.1" id="Layer_1" xmlns="http://www.w3.org/2000/svg" xmlns:xlink="http://www.w3.org/1999/xlink" x="0px" y="0px"
	 viewBox="0 0 116 50" style="enable-background:new 0 0 116 50;" xml:space="preserve">
<style type="text/css">
	.st0{fill:#FFFFFF;}
</style>
<g>
	<path class="st0" d="M79.1,11.6C74.7,4.6,66.9,0,58,0S41.3,4.6,36.9,11.6H1l3.6,3.6H35c-0.6,1.3-1,2.7-1.4,4.2H8.8l3.6,3.6h20.7
		C33,23.6,33,24.3,33,25s0,1.4,0.1,2.1H16.5l3.6,3.6h13.5c0.3,1.4,0.8,2.8,1.4,4.2H24.3l3.6,3.6H37c4.4,6.9,12.2,11.6,21,11.6h0.3
		c8.8,0,16.6-4.7,21-11.6h9.1l3.6-3.6H81c0.6-1.3,1-2.7,1.4-4.2h13.5l3.6-3.6H82.9C83,26.4,83,25.7,83,25s0-1.4-0.1-2.1h20.7
		l3.6-3.6H82.4c-0.3-1.4-0.8-2.8-1.4-4.2h30.4l3.6-3.6l0,0C115,11.6,79.1,11.6,79.1,11.6z M58,46.5c-11.8,0-21.4-9.6-21.4-21.4
		S46.2,3.7,58,3.7s21.4,9.6,21.4,21.4C79.4,36.8,69.8,46.5,58,46.5z"/>
	<rect x="72.8" y="19.4" class="st0" width="2.3" height="11.3"/>
	<polygon class="st0" points="68,27.6 63.4,19.4 60.7,19.4 60.7,30.7 62.9,30.7 62.9,22.5 67.4,30.7 70.2,30.7 70.2,19.4 68,19.4 	
		"/>
	<rect x="55.8" y="19.4" class="st0" width="2.3" height="11.3"/>
	<polygon class="st0" points="47.1,28.4 44.2,19.4 40.9,19.4 40.9,30.7 43.1,30.7 43.1,22.2 45.8,30.7 48.3,30.7 50.9,22.3 
		50.9,30.7 53.2,30.7 53.2,19.4 49.9,19.4 	"/>
</g>
</svg>
